inDegrees=no
num_controls=7
num_derivatives=13
num_iterations=51
num_multipliers=7
num_parameters=0
num_slacks=7
num_states=26
objective=0.409351
objective_accelerations=0.053972
objective_balance=0.005922
objective_effort=0.039975
objective_height=0.304643
objective_ligament=0.004839
solver_duration=743.037085
status=Solve_Succeeded
success=true
DataType=double
version=3
OpenSimVersion=4.5
endheader
time	/jointset/ground_pelvis/pelvis_tilt/value	/jointset/ground_pelvis/pelvis_tx/value	/jointset/ground_pelvis/pelvis_ty/value	/jointset/hip_l/hip_flexion_l/value	/jointset/hip_l/hip_adduction_l/value	/jointset/hip_l/hip_rotation_l/value	/jointset/back/lumbar_extension/value	/jointset/patellofemoral_l/patellar_flexion_l/value	/jointset/knee_l/knee_flexion_l/value	/jointset/knee_l/knee_adduction_l/value	/jointset/knee_l/knee_rotation_l/value	/jointset/ankle_l/ankle_angle_l/value	/jointset/subtalar_l/subtalar_angle_l/value	/jointset/ground_pelvis/pelvis_tilt/speed	/jointset/ground_pelvis/pelvis_tx/speed	/jointset/ground_pelvis/pelvis_ty/speed	/jointset/hip_l/hip_flexion_l/speed	/jointset/hip_l/hip_adduction_l/speed	/jointset/hip_l/hip_rotation_l/speed	/jointset/back/lumbar_extension/speed	/jointset/patellofemoral_l/patellar_flexion_l/speed	/jointset/knee_l/knee_flexion_l/speed	/jointset/knee_l/knee_adduction_l/speed	/jointset/knee_l/knee_rotation_l/speed	/jointset/ankle_l/ankle_angle_l/speed	/jointset/subtalar_l/subtalar_angle_l/speed	/forceset/tau_hip_flexion_l	/forceset/tau_hip_adduction_l	/forceset/tau_hip_rotation_l	/forceset/tau_knee_flexion_l	/forceset/tau_ankle_angle_l	/forceset/tau_subtalar_angle_l	/forceset/tau_lumbar_extension	lambda_cid13_p0	lambda_cid13_p1	lambda_cid13_p2	lambda_cid13_p3	lambda_cid13_p4	lambda_cid13_p5	lambda_cid14_p0	/jointset/ground_pelvis/pelvis_tilt/accel	/jointset/ground_pelvis/pelvis_tx/accel	/jointset/ground_pelvis/pelvis_ty/accel	/jointset/hip_l/hip_flexion_l/accel	/jointset/hip_l/hip_adduction_l/accel	/jointset/hip_l/hip_rotation_l/accel	/jointset/back/lumbar_extension/accel	/jointset/patellofemoral_l/patellar_flexion_l/accel	/jointset/knee_l/knee_flexion_l/accel	/jointset/knee_l/knee_adduction_l/accel	/jointset/knee_l/knee_rotation_l/accel	/jointset/ankle_l/ankle_angle_l/accel	/jointset/subtalar_l/subtalar_angle_l/accel	gamma_cid13_p0	gamma_cid13_p1	gamma_cid13_p2	gamma_cid13_p3	gamma_cid13_p4	gamma_cid13_p5	gamma_cid14_p0
0.5	-0.3012027689466112	-0.04182557100987768	0.6860194358131948	1.401184512500655	-0.2478723134659188	-0.01743239792987352	-0.3665582021238882	1.176700271882498	1.176700271882711	0.02968338948048889	0.1745084780350141	0.2913459024961997	0.08104915818039456	-0.2156279726462113	-0.0945424436514451	-0.8467499920554107	2.598091990073828	0.06200388734701533	0.4057524156957505	-0.5813193721137339	2.983281671770071	2.983281671770056	0.5012931238468343	-0.0006440671789959908	0.7542795450698002	0.2948551637039452	-0.2017554716911867	0.03338171598925319	-0.01063649761025171	-0.3407795256507047	0.1198687976807895	0.001102110181051644	0.2090865203873152	-0.903642184605057	4.543566362734783	-6.682636059717056	-8.638647769745782	-613.1453907569653	-36.42812101907452	-1.17056767160552	1.529913141076379	1.115928568760914	-0.4723194604158806	-2.627382013787503	-0.2347117811396479	-1.038739561654958	2.609603071074873	-2.652687443456711	-2.652687443456782	-0.4912916196468178	-0.1115423661423254	-1.822025962416182	-0.4175011634263908	2.774897673685294e-07	-6.228075330786975e-06	-4.530177396221723e-06	-1.067231885590868e-06	-3.705795642183701e-07	-5.389805512544406e-06	-1.277142569238971e-08
0.51	-0.3032820145741866	-0.04271532685536739	0.6775306688786195	1.427030489232426	-0.2472653515102893	-0.0134327741312055	-0.3722405273180449	1.206395514377199	1.206395514377213	0.03467485460290878	0.1745015050349511	0.2987955536317073	0.08397412787542392	-0.2001598743053785	-0.08341592109481033	-0.8507720004781449	2.570753903253884	0.05936075410132258	0.3942035839208475	-0.5550975859440689	2.955359198006716	2.955359198006726	0.4969563219879201	-0.0007323896474858205	0.7355247182912317	0.2900273141608601	-0.2083698234727311	0.03411848257927067	-0.01140672446830666	-0.348373484148933	0.118187109777162	0.001334967652681304	0.2151423173873113	-2.005202282671561	4.950955548731683	-7.108123140936112	-7.849503700350587	-621.805237100592	-36.56619427968366	-0.5753525571980442	1.564468031718332	1.109724512340315	-0.3325039851727821	-2.839417891733721	-0.2823888767939071	-1.208421341534409	2.635678505865455	-2.923174931469212	-2.923174931465316	-0.4121528822804386	0.0463104052103626	-1.921332042236647	-0.5306611970140725	3.043598368381875e-07	-5.646674831649216e-06	-4.379357943008631e-06	-1.015636519443399e-06	-3.382130813957009e-07	-5.258289505428744e-06	3.608045415561562e-08
0.52	-0.3052047372481346	-0.0434940753926456	0.6690086093694224	1.452592605920867	-0.2466854758432188	-0.009547731921508708	-0.3776591922273158	1.235799302616529	1.235799302616344	0.0396214960240734	0.1744944063286956	0.3060538322980963	0.08684777220556961	-0.1843233819192699	-0.07234098200914506	-0.8534085069797227	2.541319981408507	0.05658662963523216	0.3828360979008869	-0.5285873151362745	2.924990820695589	2.924990820695625	0.4923283835983379	-0.0006692084194678191	0.7160050512462827	0.2845900907271923	-0.2149841752542749	0.03485524916930393	-0.01217695132641094	-0.3559674426471652	0.1165054218735375	0.001567825124333698	0.221198114387306	-3.093019134749412	5.34165974098791	-7.514647037799913	-7.180533601415092	-630.290535554218	-36.72604348783807	-0.2062368274518672	1.603591950131612	1.105611874567006	-0.1952190761846024	-3.046549018874094	-0.2609100252192033	-1.002470410666528	2.667299998700741	-3.141868153011043	-3.141868153010966	-0.5495189257804006	-0.08124162684073052	-1.974994015692259	-0.5393759415429366	3.209413926295198e-07	-4.935490651621264e-06	-4.080355281921018e-06	-9.437887944471118e-07	-2.981428595724832e-07	-4.959028421034268e-06	7.650724586715077e-08
0.53	-0.30696761891857	-0.04416249738066267	0.6604670717879975	1.47785049221322	-0.2461336044432828	-0.005774457264337755	-0.3828116540163342	1.264887593983857	1.264887593983731	0.04452025281425798	0.1744875312977925	0.3131133616511199	0.08966448317658136	-0.1682208497649255	-0.0613677094015105	-0.8546667846948612	2.509939440151299	0.05377116632521584	0.3718314220431203	-0.5019039608842756	2.892273466399296	2.892273466399255	0.4873951830420324	-0.0006822393239297246	0.6957862878973473	0.278650753833886	-0.2208613848518615	0.03541021372175738	-0.01310806843992017	-0.364203371525946	0.1150720058540994	0.00169989027091096	0.2265843026530238	-4.113661186767295	5.768225139352854	-7.931278625717442	-6.336222352873263	-638.6770938171084	-36.86910892824046	-0.04985103501658161	1.61842227701317	1.089359672663994	-0.05635384682277386	-3.231455156746623	-0.2936287970660952	-1.147634964126096	2.669015405827402	-3.395786571734168	-3.395786571745718	-0.4698882916025082	0.04314215575826476	-2.062659084144724	-0.6352302487639332	3.210895039976817e-07	-4.144049450154357e-06	-3.606368004145151e-06	-8.578247872807853e-07	-2.484623637371805e-07	-4.459812719783628e-06	9.792799843749422e-08
